<svg id="Logo" xmlns="http://www.w3.org/2000/svg" viewBox="0 0 125.19 36"><defs><style>.cls-1,.cls-2{fill:#fff;}.cls-2{font-size:24px;font-family:DINAlternate-Bold, DIN Alternate;font-weight:700;}.cls-3{letter-spacing:-0.02em;}.cls-4{letter-spacing:-0.02em;}.cls-5{letter-spacing:-0.01em;}.cls-6{letter-spacing:-0.01em;}.cls-7{letter-spacing:-0.01em;}.cls-8{letter-spacing:-0.01em;}</style></defs><title>adminaut-logo-full</title><circle class="cls-1" cx="9.61" cy="18.75" r="1.57"/><path class="cls-1" d="M40.24,15.78l1.06-3.3a1.17,1.17,0,1,0-.63-.35l-2.18,2.54a11.9,11.9,0,0,0-9.71-.53l-3.47-4a1.84,1.84,0,1,0-1,.55l1.63,5.06a11.86,11.86,0,0,0-4.78,9.52V37.48c0,3,5.32,5.52,11.88,5.52s11.88-2.47,11.88-5.52V25.22A11.86,11.86,0,0,0,40.24,15.78ZM29.37,30.46a4.72,4.72,0,1,1,4.72-4.72A4.72,4.72,0,0,1,29.37,30.46Zm8.56-1.4a3.14,3.14,0,1,1,3.14-3.14A3.14,3.14,0,0,1,37.93,29.06Z" transform="translate(-21.17 -7)"/><circle class="cls-1" cx="15.54" cy="18.75" r="1.57"/><text class="cls-2" transform="translate(31.83 26.22)"><tspan class="cls-3">a</tspan><tspan x="11.59" y="0">d</tspan><tspan class="cls-4" x="24.05" y="0">m</tspan><tspan class="cls-5" x="44.1" y="0">i</tspan><tspan class="cls-6" x="49.66" y="0">n</tspan><tspan class="cls-7" x="62.31" y="0">a</tspan><tspan class="cls-8" x="73.97" y="0">u</tspan><tspan x="86.69" y="0">t</tspan></text></svg>