<svg id="Adminaut_5" data-name="Adminaut 5" xmlns="http://www.w3.org/2000/svg" viewBox="0 0 31.67 48"><defs><style>.cls-1{fill:#fff;}</style></defs><title>adminaut-logo-symbol</title><circle class="cls-1" cx="12.81" cy="25" r="2.1"/><path class="cls-1" d="M33.6,11.7,35,7.3a1.56,1.56,0,1,0-.84-.47l-2.91,3.39a15.87,15.87,0,0,0-12.95-.71l-4.63-5.4a2.45,2.45,0,1,0-1.32.74l2.17,6.74A15.81,15.81,0,0,0,8.17,24.3V40.64C8.17,44.71,15.26,48,24,48s15.83-3.29,15.83-7.36V24.3A15.81,15.81,0,0,0,33.6,11.7ZM19.11,31.28A6.29,6.29,0,1,1,25.4,25,6.29,6.29,0,0,1,19.11,31.28Zm11.41-1.86a4.19,4.19,0,1,1,4.19-4.19A4.19,4.19,0,0,1,30.52,29.42Z" transform="translate(-8.17)"/><circle class="cls-1" cx="20.72" cy="25" r="2.1"/></svg>